<mxfile host="app.diagrams.net" modified="2023-10-17T05:14:09.696Z" agent="Mozilla/5.0 (Windows NT 10.0; Win64; x64; rv:109.0) Gecko/20100101 Firefox/118.0" etag="jnOok-dddiipsMZQnWKe" version="22.0.4" type="github">
  <diagram name="Page-1" id="INn6_hTowsTmJgk1za4G">
    <mxGraphModel dx="880" dy="470" grid="1" gridSize="10" guides="1" tooltips="1" connect="1" arrows="1" fold="1" page="1" pageScale="1" pageWidth="850" pageHeight="1100" math="0" shadow="0">
      <root>
        <mxCell id="0" />
        <mxCell id="1" parent="0" />
        <mxCell id="9RJHx6sqAe9KUNpv6NSU-3" value="" style="edgeStyle=orthogonalEdgeStyle;rounded=0;orthogonalLoop=1;jettySize=auto;html=1;" edge="1" parent="1" source="9RJHx6sqAe9KUNpv6NSU-1" target="9RJHx6sqAe9KUNpv6NSU-2">
          <mxGeometry relative="1" as="geometry" />
        </mxCell>
        <mxCell id="9RJHx6sqAe9KUNpv6NSU-1" value="Start" style="strokeWidth=2;html=1;shape=mxgraph.flowchart.terminator;whiteSpace=wrap;fillColor=#d5e8d4;strokeColor=#82b366;" vertex="1" parent="1">
          <mxGeometry x="330" y="10" width="100" height="60" as="geometry" />
        </mxCell>
        <mxCell id="9RJHx6sqAe9KUNpv6NSU-5" value="" style="edgeStyle=orthogonalEdgeStyle;rounded=0;orthogonalLoop=1;jettySize=auto;html=1;" edge="1" parent="1" source="9RJHx6sqAe9KUNpv6NSU-2" target="9RJHx6sqAe9KUNpv6NSU-4">
          <mxGeometry relative="1" as="geometry" />
        </mxCell>
        <mxCell id="9RJHx6sqAe9KUNpv6NSU-2" value="&lt;div&gt;LA&lt;/div&gt;&lt;div&gt;a&lt;/div&gt;&lt;div&gt;t&lt;br&gt;&lt;/div&gt;" style="shape=parallelogram;html=1;strokeWidth=2;perimeter=parallelogramPerimeter;whiteSpace=wrap;rounded=1;arcSize=12;size=0.23;fillColor=#d5e8d4;strokeColor=#82b366;" vertex="1" parent="1">
          <mxGeometry x="330" y="120" width="100" height="60" as="geometry" />
        </mxCell>
        <mxCell id="9RJHx6sqAe9KUNpv6NSU-7" value="" style="edgeStyle=orthogonalEdgeStyle;rounded=0;orthogonalLoop=1;jettySize=auto;html=1;" edge="1" parent="1" source="9RJHx6sqAe9KUNpv6NSU-4" target="9RJHx6sqAe9KUNpv6NSU-6">
          <mxGeometry relative="1" as="geometry" />
        </mxCell>
        <mxCell id="9RJHx6sqAe9KUNpv6NSU-4" value="LA=1/2*a*t" style="rounded=1;whiteSpace=wrap;html=1;absoluteArcSize=1;arcSize=14;strokeWidth=2;fillColor=#d5e8d4;strokeColor=#82b366;" vertex="1" parent="1">
          <mxGeometry x="297.5" y="230" width="165" height="60" as="geometry" />
        </mxCell>
        <mxCell id="9RJHx6sqAe9KUNpv6NSU-10" value="" style="edgeStyle=orthogonalEdgeStyle;rounded=0;orthogonalLoop=1;jettySize=auto;html=1;" edge="1" parent="1" source="9RJHx6sqAe9KUNpv6NSU-6" target="9RJHx6sqAe9KUNpv6NSU-9">
          <mxGeometry relative="1" as="geometry" />
        </mxCell>
        <mxCell id="9RJHx6sqAe9KUNpv6NSU-6" value="&lt;div&gt;a=6&lt;/div&gt;&lt;div&gt;b=8&lt;br&gt;&lt;/div&gt;" style="rounded=1;whiteSpace=wrap;html=1;absoluteArcSize=1;arcSize=14;strokeWidth=2;fillColor=#d5e8d4;strokeColor=#82b366;" vertex="1" parent="1">
          <mxGeometry x="305" y="340" width="150" height="60" as="geometry" />
        </mxCell>
        <mxCell id="9RJHx6sqAe9KUNpv6NSU-12" value="" style="edgeStyle=orthogonalEdgeStyle;rounded=0;orthogonalLoop=1;jettySize=auto;html=1;" edge="1" parent="1" source="9RJHx6sqAe9KUNpv6NSU-9" target="9RJHx6sqAe9KUNpv6NSU-11">
          <mxGeometry relative="1" as="geometry" />
        </mxCell>
        <mxCell id="9RJHx6sqAe9KUNpv6NSU-9" value="LA=1/2*6*8" style="shape=parallelogram;html=1;strokeWidth=2;perimeter=parallelogramPerimeter;whiteSpace=wrap;rounded=1;arcSize=12;size=0.23;fillColor=#d5e8d4;strokeColor=#82b366;" vertex="1" parent="1">
          <mxGeometry x="290" y="460" width="180" height="60" as="geometry" />
        </mxCell>
        <mxCell id="9RJHx6sqAe9KUNpv6NSU-14" value="" style="edgeStyle=orthogonalEdgeStyle;rounded=0;orthogonalLoop=1;jettySize=auto;html=1;" edge="1" parent="1" source="9RJHx6sqAe9KUNpv6NSU-11" target="9RJHx6sqAe9KUNpv6NSU-13">
          <mxGeometry relative="1" as="geometry" />
        </mxCell>
        <mxCell id="9RJHx6sqAe9KUNpv6NSU-11" value="LA=24" style="rounded=1;whiteSpace=wrap;html=1;absoluteArcSize=1;arcSize=14;strokeWidth=2;fillColor=#d5e8d4;strokeColor=#82b366;" vertex="1" parent="1">
          <mxGeometry x="270" y="570" width="220" height="70" as="geometry" />
        </mxCell>
        <mxCell id="9RJHx6sqAe9KUNpv6NSU-13" value="End" style="strokeWidth=2;html=1;shape=mxgraph.flowchart.terminator;whiteSpace=wrap;fillColor=#d5e8d4;strokeColor=#82b366;" vertex="1" parent="1">
          <mxGeometry x="330" y="690" width="100" height="60" as="geometry" />
        </mxCell>
      </root>
    </mxGraphModel>
  </diagram>
</mxfile>
